<svg id="레이어_1" data-name="레이어 1" xmlns="http://www.w3.org/2000/svg" viewBox="0 0 512 512"><defs><style>.cls-1{fill:#d6e8f2;}.cls-2{fill:#fff;}</style></defs><ellipse class="cls-1" cx="256" cy="389.8" rx="158" ry="60"/><path class="cls-2" d="M256.44,406.35c-.39-.52-.72-1.07-1.11-1.6q-1.56-2-3.1-4.1l-6.16-8.25q-6.13-8.29-12.15-16.65-12-16.75-23.59-33.84-2.79-4.12-5.55-8.27-4.65-7-9.22-14.05A727,727,0,0,1,158,255.3c-5.65-11.06-11.26-22.18-15.8-33.76-6.92-17.68-10.51-36.65-8.31-55.61,2.07-17.8,8.64-35.08,17.76-50.27a106.89,106.89,0,0,1,43-40.15,128.46,128.46,0,0,1,42.78-12.84,157.13,157.13,0,0,1,19.27-.87h-.22c2.44-.13,4.87-.12,7.31,0C293.67,62.6,324,73.64,345.41,95a114,114,0,0,1,33,75.35c1,28.78-9.78,58.36-22.59,83.65q-8.94,17.66-18.81,34.85t-20.53,34.05q-3.51,5.55-7.09,11.05-7.27,11.18-14.83,22.16-11.24,16.37-23,32.36-3.74,5.1-7.53,10.17c-1.26,1.69-2.53,3.37-3.79,5.05l-1.91,2.52c-.39.52-.74,1.46-1.45.7A4.6,4.6,0,0,1,256.44,406.35Z"/><path d="M257.4,413.78a7.28,7.28,0,0,1-5.32-2.37,11.23,11.23,0,0,1-.93-1.1q-.39-.54-.75-1.08c-.11-.17-.22-.34-.34-.5L247,404.61c-2.07-2.75-4.13-5.52-6.18-8.28-4.1-5.54-8.21-11.17-12.21-16.73-8.09-11.25-16.06-22.69-23.7-34q-2.81-4.16-5.57-8.32c-3.09-4.64-6.21-9.39-9.27-14.12-15.62-24.13-27.68-44.74-38-64.87-6.13-12-11.56-22.86-16.06-34.35-8-20.34-10.9-40.11-8.72-58.79,2.06-17.7,8.51-36,18.65-52.89A113.46,113.46,0,0,1,191.6,69.63a134.41,134.41,0,0,1,45-13.51,163.21,163.21,0,0,1,19.69-.92c2.31-.12,4.75-.13,7.67-.05,33.31,1,64.71,13.76,86.13,35.16A120.14,120.14,0,0,1,385,170.09c.92,25.7-6.69,54.11-23.29,86.87-5.85,11.54-12.23,23.37-19,35.15-6.43,11.23-13.39,22.77-20.68,34.29-2.33,3.68-4.73,7.43-7.14,11.13-4.76,7.32-9.78,14.82-14.92,22.3-7.26,10.58-15,21.53-23.12,32.53-2.5,3.42-5,6.82-7.56,10.22l-3.81,5.07-1.83,2.42a7.45,7.45,0,0,1-5.66,3.68Zm-.74-348V68.4a152.36,152.36,0,0,0-18.47.83,121,121,0,0,0-40.57,12.15,100.27,100.27,0,0,0-40.36,37.68c-9.19,15.3-15,31.77-16.86,47.63-1.92,16.5.74,34.15,7.9,52.44,4.28,10.94,9.56,21.49,15.52,33.17,10.07,19.72,21.91,40,37.28,63.7,3,4.68,6.12,9.38,9.18,14q2.75,4.13,5.52,8.24c7.57,11.2,15.47,22.53,23.48,33.67,4,5.52,8,11.09,12.1,16.58q3,4,6,8l1.37-1.84q3.78-5,7.5-10.12c8-10.89,15.69-21.72,22.88-32.19,5.08-7.4,10-14.81,14.74-22,2.38-3.66,4.75-7.35,7.05-11,7.18-11.36,14-22.73,20.37-33.8C337.92,274,344.2,262.34,350,251c15.34-30.28,22.7-57.34,21.87-80.42a106.75,106.75,0,0,0-31.08-70.92c-19.06-19-47.19-30.45-77.18-31.31-2.62-.07-4.77,0-6.76,0Z"/><circle class="cls-2" cx="255.84" cy="176.3" r="54"/><path d="M255.84,236.9a60.6,60.6,0,1,1,60.6-60.6A60.66,60.66,0,0,1,255.84,236.9Zm0-108a47.4,47.4,0,1,0,47.4,47.4A47.46,47.46,0,0,0,255.84,128.9Z"/><path d="M256,456.9c-42.33,0-82.22-6.4-112.33-18C111.58,426.5,93.9,409.25,93.9,390.3c0-29.41,43.18-54.22,110-63.21l1.76,13.08c-29,3.91-54.81,11.31-72.68,20.85-16.69,8.92-25.88,19.31-25.88,29.28,0,12.92,15.06,26.14,41.32,36.27C177.05,437.62,215.26,443.7,256,443.7s78.95-6.08,107.58-17.13c26.26-10.13,41.32-23.35,41.32-36.27,0-21-38.77-41.32-94.28-49.52l1.93-13.06c29.85,4.41,55.47,12.16,74.09,22.42,20.58,11.34,31.46,25.23,31.46,40.16,0,18.95-17.68,36.2-49.77,48.59C338.22,450.5,298.33,456.9,256,456.9Z"/></svg>