<svg id="레이어_1" data-name="레이어 1" xmlns="http://www.w3.org/2000/svg" viewBox="0 0 512 512"><defs><style>.cls-1{fill:#d6e8f2;}</style></defs><rect class="cls-1" x="133.5" y="174.5" width="96" height="117"/><path d="M398,460.5H114.05A30.59,30.59,0,0,1,83.5,430V58A6.5,6.5,0,0,1,90,51.5H337a6.5,6.5,0,0,1,0,13H96.5V430a17.57,17.57,0,0,0,17.55,17.55H398A17.57,17.57,0,0,0,415.5,430V143a6.5,6.5,0,0,1,13,0V430A30.59,30.59,0,0,1,398,460.5Z"/><path d="M422,149.5H337a6.5,6.5,0,0,1-6.5-6.5V58a6.51,6.51,0,0,1,11.1-4.6l85,85a6.51,6.51,0,0,1-4.6,11.1Zm-78.5-13h62.81L343.5,73.69Z"/><path d="M229,298.5H133a6.5,6.5,0,0,1-6.5-6.5V175a6.5,6.5,0,0,1,6.5-6.5h96a6.5,6.5,0,0,1,6.5,6.5V292A6.5,6.5,0,0,1,229,298.5Zm-89.5-13h83v-104h-83Z"/><path d="M295.65,145.38H133.5a6.5,6.5,0,0,1,0-13H295.65a6.5,6.5,0,0,1,0,13Z"/><path d="M380,336.54H133.5a6.5,6.5,0,0,1,0-13H380a6.5,6.5,0,0,1,0,13Z"/><path d="M380,374.77H133.5a6.5,6.5,0,0,1,0-13H380a6.5,6.5,0,0,1,0,13Z"/><path d="M380,413H133.5a6.5,6.5,0,0,1,0-13H380a6.5,6.5,0,0,1,0,13Z"/><path d="M199.9,107.15H133.5a6.5,6.5,0,0,1,0-13h66.4a6.5,6.5,0,0,1,0,13Z"/><path d="M295.65,107.15H229.24a6.5,6.5,0,0,1,0-13h66.41a6.5,6.5,0,0,1,0,13Z"/><path d="M324,183.61H262.45a6.5,6.5,0,0,1,0-13H324a6.5,6.5,0,0,1,0,13Z"/><path d="M379.5,221.84h-117a6.5,6.5,0,0,1,0-13H379.5a6.5,6.5,0,0,1,0,13Z"/><path d="M379.5,260.07h-117a6.5,6.5,0,0,1,0-13H379.5a6.5,6.5,0,0,1,0,13Z"/><path d="M379.5,298.31h-117a6.5,6.5,0,0,1,0-13H379.5a6.5,6.5,0,0,1,0,13Z"/></svg>